<svg xmlns="http://www.w3.org/2000/svg" viewBox="0 0 1024000 1024000" xmlns:v="https://vecta.io/nano"><style><![CDATA[.B{fill:#f70913}.C{fill:#f70411}.D{fill:#f30000}]]></style><path d="M545000 1025000H1000V1000h1024000v1024000H545000m160738-565270s-303 74-706 3c-310 151-385 380-264 940 0 0-242 80-834 40l-1016 1867c-183 296-449 448-1440 560l-1472 1860s54 30-624 118l-2112 2172s157 8-396 160c-248 280-496 560-753 680 0 0 162 10-343 230l-703 734s91 16-632 44l-3340 2970s84 22-543 77l-1023 1472s-113 27-805-230a422710 422710 0 0 1-2190 2176s-80 22-622-27c-280 216-560 432-833 541 0 0 105 21-650-33l-2863 2587s-150 13-668-77c-277 194-554 387-828 500 0 0 80 17-554 60l-1420 1000s123 22-635-53l-5357 3044s101 17-696-46l-11896 5646s-194-75-993-420c-4165 1280-8330 2557-12492 3744 0 0 90 11-593-24l-2860 998s-420 8-1305-27c-1807 177-3648 190-5416 556-20323 4220-40844 6470-61612 6425-14289-30-28580-78-42866 100-1760 21-3503 1381-5276 2011 0 0 112-5-160 143l-69 372s381 237 283 250c0 0 10-99 40 538l1425 1064s20 80-50 610l517 840s20-80-12 674l2972 4345c1 0 35-75 25 612a23538 23538 0 0 0 1785 1754s-3 311-335 965l2052 2213s15 56-30 597c204 286 411 571 533 850 0 0 18-82-10 665 814 1006 1627 2013 2280 3372 0 0 125-367-43 340l2530 2967 133180 229312 45670 78708c3 326 191 537 997 745 250 207 368 472 947 1384 796 185 1593 530 2390 531l80260-14c1238-3 2475-637 3771-1703L650685 565255l10614-2325c36472-9010 69044-25370 95465-52433 8874-9090 16147-19742 24520-29464l166-1448s-14-59 620-174l780-1513s-128-4 414-330l666-1628s-86 10 330-354l160-974s40-104 760-116l4683-9607s-108 0 564-247a741173 741173 0 0 0 2942-8106s48-76 743-145c972-2798 1945-5596 2878-8988 254-492 510-985 1455-1746l3930-10350c6540-22647 9328-45642 7821-69300-1117-17550-4526-34523-9568-51234-1077-3569-3447-6746-5380-10242 0 0 46-205 391-900-626-1177-1252-2353-1770-3528 0 0-20 106 31-612l-1574-2016s15-118 336-870l-7757-14508s-26 82 23-682l-3707-4660-17526-23473c-9870-12004-22203-21308-34514-30656l-3255-1515s-4 100-260-573l-4750-2414s-6 104-257-582l-4868-2246s-23 120-208-602l-3715-1508s-10 120-235-564a515305 515305 0 0 1-8653-3610s-4 70-323-560l-11764-4284s10 147-372-398a23503 23503 0 0 0-2048 5s-147-155-166-877c-5224-1919-10324-4328-15692-5672-25426-6368-51364-8237-77492-8227l-170296 4c-25137 0-50274-40-75410 98-1769 10-3530 1356-5305 1980 0 0 102 6-372 341l1480 2420s16-119-87 542c650 825 1298 1650 2556 2816l78882 136000c343-1287 467-1750 1048-2900l370-5448 20-53982c3-6764 77-6853 6567-6853l183093 513c1303 156 2606 453 3908 450 16410-48 32136 3364 47420 9154 2945 1115 5990 1970 9683 3026 17190 9675 30223 23340 38844 41330 1245 2131 2490 4263 3626 6397 0 0 18-105-35 605l1670 1958s-59 226-408 984c236 1448 338 2934 732 4338 2058 7333 4915 14530 6115 21994 1542 9595 2217 19390 2425 29118 160 7401-993 14830-1578 22145 0 0 103-8-462 517a252446 252446 0 0 1-535 4480s106-6-450 488l-8237 23194c-240 697 267 1652 490 2824 0 0-280 198-900 232l-266 1780s-130 94-828 110l-2747 5445s100 6-573 246c-842 1588-1684 3177-2583 5223-120 330-355 503-1419 598l-2428 3933s108 0-378 275c-202 310-403 617-609 763 0 0 161 18-473 217l-1058 2245s-95 50-550 50c-328 180-414 437-324 1082M327636 835506c640 154 1278 442 1917 443l72766-7c1214-3 2426-720 3657-1548 0 0 165-413 632-1091 129-816 370-1632 370-2448l-42-188386c-2-1476-975-2950-1953-4880l-33876-58308-45028-74785c-356 2056-1022 4112-1023 6168l-40 318394v4292l542-45 1256-7406 822 9607m-53248-423812l-78723-134932c-266-454-1205-515-2428-925-408 1402-1174 2804-1174 4206l-135 549780c-2 4848 1605 6304 6354 6265l70470-128c1753-5 3504-603 5446-1145 0 0 255 140 940-389l807-5780 34-93963-44-317875c0-1543-680-3085-1547-5114m12008-220018c-20-336-217-542-1010-636 0 0-386-170-670-898-1035-376-2071-1077-3110-1080-26290-60-52578-78-78867 56-1213 6-2418 1490-3134 2695l1550 2535 152180 262151 185407 317661a4429667 4429667 0 0 1 33927 59140c-2 322 178 534 985 747 262 203 390 470 975 1386 964 183 1928 524 2892 525l79717-8c1253-2 2505-580 4106-1355-192-458-333-946-583-1370L286396 191676" fill="#f50c25"/><path d="M702121 463036c348-8 614-160 1097-782 636-718 972-1110 1308-1502 0 0 242-80 395-276 320-319 447-477 520-672 0 0 304-73 485-327 365-412 504-603 598-828 0 0 95-50 328-300a41305 41305 0 0 0 1460-2194s-163-18 102-50c454-357 642-681 830-1005 0 0-108-1 190-104l2843-3904c349-20 584-195 1019-929l2940-5058s-100-6 200-124l3146-5343s130-93 272-365l744-1543s280-198 392-655l8192-26055s-106 6 190-69c464-1690 634-3310 804-4923 3 0-100 8 220-106 2285-12280 3034-24360 1928-36805-1280-14391-3898-28196-9593-41434 0 0 58-226-178-564a78310 78310 0 0 1-1380-2330s-18 105-30-250l-3218-6510c-9017-17523-22050-31187-39870-41106-19540-10266-39974-13460-61520-13830l-189368-70v67970l-593 2216-79234-136482a316977 316977 0 0 1-2100-2996s-15 118-37-180c-343-1020-664-1737-984-2456 0 0-102-6 360-23l259138-118c28900-64 57142 3540 84612 12674 1 0 148 155 514 250l2063 445s-10-147 151 150l11924 4615s4-70 178 235c3017 1532 5860 2760 8704 3990 0 0 10-120 137 167 1342 840 2558 1390 3773 1942 0 0 23-120 180 147l4960 2666c1 0 6-104 123 194 1708 1128 3299 1958 4890 2788 0 0 5-100 97 185 1008 750 1926 1217 2843 1683 12630 8896 24964 18200 34834 30204l17907 23960a241880 241880 0 0 1 3277 4937c0-2 26-84 62 276l7400 14900s-15 118 170 440l1337 2412s20-105 20 217c476 1514 950 2707 1426 3900-2 0-50 206 188 605 7427 19583 12217 39385 13036 59840 530 13243 354 26703-1445 39800-1915 13950-6117 27582-9321 41354l-968 2050-3368 8485-220 408a916446 916446 0 0 0-3440 8020s108 2-190 145l-5107 9476s-40 104-187 258c-240 498-334 841-427 1185 0 0 86-10-200 96-497 686-710 1267-922 1848 0 0 127 4-140 72-560 565-852 1063-1146 1560-1 0 14 60-162 238-294 458-354 750-358 1052-8006 9940-15280 20592-24153 29680-26420 27064-58993 43424-95465 52434l-10613 2325 155869 269360-86513 225c10-324-110-589-652-1092-380-440-464-584-550-728l-45823-78429-133542-229803a101198 101198 0 0 1-2000-3183s-124 367-175-110c-767-1530-1484-2587-2200-3642 0 0-20 82-27-167a5562 5562 0 0 0-480-1140s-16-57-156-326l-1581-2598s3-310-282-629a43976 43976 0 0 1-1490-2123s-32 75-60-264l-2914-4760s-20 80-22-164a5458 5458 0 0 0-447-1128s-20-80-190-348a23518 23518 0 0 0-1277-1432s-10 100 14-96l36-575s-112 5 353-25l86250-3284c9858-569 19565-3753 29340-5743 0 0 420-8 970 64 1364-296 2180-665 2995-1035 0 0-90-10 320 0 4569-1128 8725-2269 12880-3410 0 0 194 75 598-144l12290-5364s-101-17 250-28c2156-994 3960-1976 5764-2958 0 0-124-20 182-27 787-350 1268-694 1748-1038 0 0-80-17 158-22 575-34 865-167 1108-405 0 0 150-13 455-240a407550 407550 0 0 1 3314-2306s-105-20 142-25a5226 5226 0 0 0 1128-488s80-22 354-195l2607-1747s114-27 380-220c640-573 1010-953 1384-1332 0 0-84-23 233-89 1460-1020 2605-1976 3748-2930 0 0-90-17 177-60 492-333 717-620 940-910-1 0-162-10 114-20 527-280 778-552 1030-823 0 0-157-9 147-59 1030-770 1758-1490 2485-2210 0 0-54-30 240-105 803-680 1312-1285 1820-1890zM572821 833026l-34071-58866-185410-317660-152181-262152c-497-856-1032-1690-1351-2874l9140-460 76055-145s385 171 680 420c390 390 485 532 579 674l59532 102685 132669 227969 182302 310608c250 424 390 912-60 1575l-86662 48c11-330-118-598-674-1095-293-295-540-727-540-727zm-298361 1930s-256-140-821-55l-79635 85v-5500l2-536995-165-16488c625 244 1564 305 1830 760l78890 135625 97 2691-198 419876" fill="#fffefe"/><path d="M326886 504079l44220 75202 34290 58975c475 2325 594 3982 594 5640l12 112260 140 77825s-166 413-637 700l-78497 280-224-9900-89-4531-17-31894 32-4108-36-40890 26-4110-25-49907 25-4952c37-762-36-1202-23-2018 28-1138-28-1902 29-3080l-21-5980 20-9025-40-6970 43-10028-32-6967 30-8042-20-7962 26-8060-35-16873c28-1141-28-1907 27-3058 39-1446-35-2506-24-3981l33-5020c36-1444-40-2504-32-4028l36-23020-40-8915 24-4010c40-1105-31-1850-16-3020l24-5935c33-763-40-1203-34-1980 24-793-33-1249 23-2158l-26-14836c27-795-28-1252 30-2140l7-7865c20-790-40-1244 6-2035-60-1003-230-1669-220-2495 345-445 416-752 390-1082" fill="#fff"/><path d="M193536 275920l465 16570-3 536995v5500l79540 25c-1282 347-3033 945-4785 950-23490 62-46982-60-70470 128-4750 40-6357-1417-6355-6266l135-549779c0-1402 766-2804 1473-4123" fill="#f6010c"/><path d="M688313 203260c-27460-8775-55702-12378-84604-12314l-259134 169c1309-658 3070-2004 4840-2014l75409-98 170296-4c26128-10 52066 1859 77492 8227 5368 1344 10468 3753 15700 6033" class="C"/><path d="M326587 739983c57 1085 114 2170-113 4011l-524 24167c39 5609 420 11215 648 16823 55 1084 110 2168-120 4008l104 31993 88 3638-1112 8682-541 45v-4292l40-318394c0-2056 666-4112 1425-6377 430 122 358 429-90 1215-114 1165 51 1828 216 2490 61 455 122 909-98 2015l80 7980c54 457 110 914-117 2064l113 14940c56 457 113 910-74 1869-132 1046-21 1592 90 2139 57 1730 113 3459-95 5822-150 1480-33 2327 83 3173 57 1083 114 2166-106 3977l124 9023-110 22827c-142 1863-20 3017 104 4170 54 1407 108 2813-105 4878-146 1814-25 2969 96 4123 56 765 112 1530-116 3028l126 16973c55 2388 110 4775-111 7922l100 8075c57 2390 112 4780-106 7917l112 7085-122 9910 118 7088c58 2720 116 5438-100 8893l100 6110c55 763 110 1527-80 2827-140 1085-31 1630 77 2177 56 1406 113 2811-117 4988l-526 41153c-3 2950 415 5901 639 8852" fill="#f50002"/><path d="M274796 834690l-152-56190 8-363420c0-666 47-1332 156-2448 446 1091 1127 2633 1127 4176l44 317875-34 93963c-3 1927-526 3853-1150 6044" class="D"/><path d="M427387 330642l-228-67625 189373 289c468 288 478 726 478 726l-182437-15c-6490 0-6564 89-6568 6853l-20 53982c-2 1816-240 3632-598 5790" fill="#f80001"/><path d="M798094 445791c2858-13638 7060-27272 8976-41221 1800-13096 1975-26556 1445-39798-819-20455-5609-40257-12956-59774 1617 3029 3987 6206 5064 9775 5042 16710 8450 33684 9568 51233 1507 23660-1282 46654-7820 69300-1020 3535-2607 6905-4277 10485zm-156375 47243l-28897 5760-86239 3339c1297-655 3040-2015 4800-2037l42866-100c20768 45 41290-2203 61612-6424 1768-367 3609-379 5858-538" class="B"/><path d="M406375 833642l-373-77486-12-112260-366-5412c337 1035 1310 2510 1312 3985l41 188386c0 816-240 1632-602 2787" class="D"/><path d="M284859 190505l-75914 508-9386 256c763-660 1968-2145 3180-2150l78868-57c1038 3 2074 704 3252 1443" fill="#f80210"/><path d="M722549 328055c5869 12859 8487 26664 9767 41055 1106 12446 357 24525-1919 36857l1250-22083c-210-9727-884-19523-2426-29118-1200-7465-4057-14660-6115-21994-394-1404-496-2890-557-4717zm-105210-63774c-330-249-340-687-344-906 21078 80 41513 3275 60704 13501-2716-771-5760-1627-8706-2742-15283-5790-31010-9202-47420-9155-1301-4-2604-301-4235-706" class="B"/><path d="M574335 835140l86192-107c-783 337-2035 915-3288 917l-79717 8c-964 0-1928-342-3187-817zm146000-6l86189-156c-770 330-2007 964-3246 967l-80259 14c-797-8-1594-350-2685-830zm-393013 100l78174-330c-750 318-1963 1035-3177 1038l-72766 7c-639-1-1278-290-2230-715" class="D"/><path d="M728898 411267l-7944 25640c-303-547-810-1502-570-2200a776105 776105 0 0 1 8514-23440zm63599-114286l-7603-14515 7603 14515zM671815 483130l-11814 5325 11814-5325zm-12888 5367c-3756 1313-7912 2454-12482 3629l12482-3630" class="B"/><path d="M702814 208766c-3762-1125-7682-2565-11835-4286a123796 123796 0 01 11835 4286" class="C"/><path d="M784814 474502c1243-3106 2847-6217 4737-9523a76557 76557 0 0 1-4730 9523zm8945-18076c707-2603 1762-5240 3040-8154l-3040 8154" class="B"/><path d="M711743 212964c-2731-888-5575-2116-8622-3630a63917 63917 0 01 8622 3630" class="C"/><path d="M790086 464765c754-2440 1844-5002 3107-7852l-3107 7852zm-72367-146510c1266 1818 2335 3870 3469 6276-1178-1778-2422-3910-3469-6276zm-39870 161883c-1426 1020-3230 2002-5384 3047 1435-986 3220-2035 5383-3047zm41380-40492c-600 1734-1550 3476-2791 5385 620-1681 1530-3530 2790-5385zm-191139 66576c977 1096 1939 2570 2969 4375-950-1112-1970-2555-2970-4375zm256807-224425c-990-1102-1954-2585-3003-4400 954 1120 1990 2569 3003 4400" class="B"/><path d="M720780 217885c-1475-457-3076-1257-4895-2315 1445 486 3107 1230 4895 2315zm5010 2990c-1464-495-3055-1325-4815-2446 1450 508 3068 1309 4814 2445" class="C"/><path d="M715896 445225c-539 1431-1414 2983-2575 4710 560-1413 1400-3002 2580-4710zm-21091 23899c-782 941-1925 1897-3375 2960 800-911 1907-1929 3375-2960zm35084-62840c112 1356-58 2974-516 4720-114-1401 60-2930 516-4720zm-17973 44845c-491 1230-1340 2498-2478 3921 513-1190 1317-2537 2478-3921" class="B"/><path d="M729016 222852c-1077-240-1995-707-3053-1452 977 224 2095 725 3053 1452zm-13343-7797c-1123-191-2340-743-3740-1574 1092 219 2370 716 3740 1574" class="C"/><path d="M535083 518226c731 682 1448 1738 2296 3093-683-706-1496-1713-2296-3093zm149732-42115c-627 720-1630 1412-2896 2269a15595 15595 0 01 2890-2269zM795460 303978c-647-846-1122-2039-1651-3554 570 854 1192 2030 1650 3554" class="B"/><path d="M345181 194053c634 508 1216 1347 1847 2496-600-515-1250-1340-1847-2496" class="C"/><path d="M532688 513948c645 450 1125 1226 1736 2243a7135 7135 0 01-1736-2243zm156390-40392c-432 652-1210 1177-2230 1847a7692 7692 0 01 2230-1847zM537390 521958c630 545 1175 1442 1798 2650-576-558-1230-1428-1798-2650" class="B"/><path d="M343974 191255c557 550 878 1270 1280 2280a6336 6336 0 01-1280-2280" class="C"/><path d="M699720 465074c-387 676-1114 1396-2127 2242 405-648 1097-1423 2128-2242zm8267-8820c-92 550-500 1197-1119 2047 128-514 465-1230 1120-2046zm85883-156404c-410-337-792-1034-1325-2006 351 365 851 1006 1325 2006zM645784 492063c-474 387-1290 756-2448 1008 473-412 1290-720 2448-1001zm-114707 19150c407 258 809 860 1358 1706-357-291-860-827-1358-1706zm190062-186076c407 310 789 973 1317 1900-350-340-847-942-1317-1900zm-19340 137950c-187 554-696 1160-1488 1868 208-537 690-1176 1490-1867zm-21958 16046c-164 322-645 665-1432 1078 168-300 641-680 1432-1071" class="B"/><path d="M690708 204043c-375 155-940 38-1770-204 352-105 966-87 1770 204" class="C"/><path d="M690873 472157c-58 352-430 732-1035 1260 85-314 403-773 1035-1260zm92115 5574c-59-418 154-1000 641-1727 60 424-155 994-641 1727zm-1240 1738c-23-440 270-938 822-1566 3 415-251 962-822 1566zm-61464-41722c108 407-93 831-433 1446-52-350 36-889 433-1446zm-194098 65345c354 70 723 457 1237 1081-310-96-766-430-1237-1080zm254910-22167c-180-412-120-703 144-1150 112 308 76 783-145 1150zm-76866-20192c-40 410-376 803-952 1290 58-373 357-841 952-1290" class="B"/><path d="M286328 191820c-163 0-257-140-436-523 287-163 484 43 436 522" fill="#f80210"/><path d="M572745 833164c76-138 324 294 395 533-292 137-472-75-395-533zm146017-5c162 5 247 150 410 533-297 144-484-67-410-533" class="D"/><path d="M534568 516814c180 27 337 325 545 876-156-34-363-320-545-876zm-6965-11994c184 29 332 323 524 865-158-35-358-317-524-865zm-1520-2643c136-74 122 306 150 494 26 189-355-48-355-48s68-372 204-446zm155081-23538c16 283-274 416-850 490 38-148 315-341 850-490zm102884-2871c-116-161-23-505 254-1044 108 156 30 509-254 1044zm-97857-168c-22 187-316 348-860 567 30-159 310-375 860-567zm9840-7350c28 180-197 468-690 847-30-186 209-461 690-847zm1120-877c24 196-227 466-750 828-23-190 225-470 750-821zm8083-7604c127 230 7 388-295 580-299-236-220-465 290-580zm1055-1120c134 225-5 416-337 675-304-238-218-496 337-675zm2706-3412c55 187-133 510-584 949-62-195 140-503 584-949" class="B"/><path d="M326700 739527l-752-8396 441-40738 310 49134zm10 45000l-760-16366 440-23766c277 12988 354 26332 320 40133zm-15 36003l-303-31138c273 9990 345 20336 303 31138zm17-204000a266227 266227 0 0 1-318-16140c276 4990 352 10338 318 16140zm-14-81998a202804 202804 0 0 1-308-14143l308 14143zm19 26018c-243-2328-376-5093-316-8186l316 8186zm-11 72002c-240-2008-365-4447-297-7203 266 2046 338 4410 297 7203zm-4-114996c-233-2012-353-4455-274-7214 260 2050 324 4417 274 7214zm4 147003c-242-1686-373-3796-315-6213 268 1726 347 3758 315 6213zm2-16998c-240-1682-368-3800-306-6220 266 1730 342 3769 306 6220zm-2 32017c-236-1375-360-3166-295-5247 262 1417 334 3125 295 5247zm7-91970c-234-770-357-1923-297-3322 257 816 333 1876 297 3320zm-10 9000c-231-770-352-1924-290-3323 256 816 330 1876 290 3322zm-2-48974c-221-485-340-1331-280-2387 250 536 320 1280 280 2387zm10-8956c-214-225-330-770-274-1480 237 277 310 717 278 1480zm10-31014c-272-325-437-990-500-1993 270 325 440 990 500 1994zm-16 177010c-216-223-325-770-270-1480 235 280 308 720 270 1480" fill="#f50c25"/></svg>